<?xml version="1.0" standalone="no"?>
<!DOCTYPE svg PUBLIC "-//W3C//DTD SVG 20010904//EN"
 "http://www.w3.org/TR/2001/REC-SVG-20010904/DTD/svg10.dtd">
<svg version="1.0" xmlns="http://www.w3.org/2000/svg"
 width="512.000000pt" height="512.000000pt" viewBox="0 0 512.000000 512.000000"
 preserveAspectRatio="xMidYMid meet">

<g transform="translate(0.000000,512.000000) scale(0.100000,-0.100000)"
fill="#00000" stroke="none">
<path d="M1296 4337 l-1286 -732 1275 -3 c701 -1 1849 -1 2550 0 l1275 3
-1217 705 c-669 388 -1238 717 -1264 732 l-47 27 -1286 -732z"/>
<path d="M232 3318 l3 -143 228 -3 227 -2 0 -1180 0 -1180 225 0 225 0 0 1180
0 1180 290 0 290 0 0 -1180 0 -1180 225 0 225 0 0 1180 0 1180 380 0 380 0 0
-1180 0 -1180 225 0 225 0 0 1180 0 1180 295 0 295 0 0 -1180 0 -1180 225 0
225 0 0 1180 0 1180 220 0 220 0 0 145 0 145 -2315 0 -2316 0 3 -142z"/>
<path d="M490 635 l0 -85 -100 0 -100 0 0 -80 0 -80 -85 0 -85 0 0 -170 0
-170 2465 0 2465 0 -2 168 -3 167 -92 3 -93 3 0 79 0 80 -90 0 -90 0 0 85 0
85 -2095 0 -2095 0 0 -85z"/>
</g>
</svg>
